<svg xmlns="http://www.w3.org/2000/svg" viewBox="0 0 279.33 279.32"><defs><style>.cls-1{fill:#c0daf9;}.cls-2{fill:#033275;}.cls-3{fill:#29729b;}.cls-4{fill:#4495cc;}</style></defs><g id="Layer_2" data-name="Layer 2"><g id="noavatar-bg"><rect class="cls-1" width="279.32" height="279.32"/></g><g id="noavatar-torso"><path id="shape-torso" class="cls-2" d="M279.33,208v71.3H0V209c18.13-17.15,46.56-30.66,80.69-38,20.52,23.34,96.44,23.16,116.33-.56C231.67,177.52,260.67,190.9,279.33,208Z"/></g><g id="noavatar-neck"><path id="shape-neck" class="cls-3" d="M166.44,166V101.27H112.63v64.89A271.86,271.86,0,0,0,80.69,171c20.51,23.35,96.45,23.17,116.33-.56A273.65,273.65,0,0,0,166.44,166Z"/></g><g id="noavatar-head"><path id="shape-head" class="cls-4" d="M234.73,72.39c-4-13.24-17.86-20.64-30-15.79C182.09-7.78,91.74-7.7,74.18,58c-16.76-4.58-31.58,12.82-26,29.64,3.77,12.42,16.12,19.7,27.79,16.54,22.49,66.06,115.16,65,131.31-2.57C224.31,107.58,240.55,89.82,234.73,72.39Z"/></g></g></svg>